<svg width="15" height="15" viewBox="0 0 15 15" fill="none" xmlns="http://www.w3.org/2000/svg">
<path d="M7.23707 10.2062C8.02451 10.2062 8.77971 9.89338 9.33652 9.33658C9.89332 8.77977 10.2061 8.02458 10.2061 7.23713C10.2061 6.44969 9.89332 5.69449 9.33652 5.13769C8.77971 4.58088 8.02451 4.26807 7.23707 4.26807C6.44962 4.26807 5.69443 4.58088 5.13762 5.13769C4.58082 5.69449 4.26801 6.44969 4.26801 7.23713C4.26801 8.02458 4.58082 8.77977 5.13762 9.33658C5.69443 9.89338 6.44962 10.2062 7.23707 10.2062Z" stroke="white" stroke-width="1.1134" stroke-linecap="round" stroke-linejoin="round"/>
<path d="M0.556702 10.2061V4.26797C0.556702 3.28366 0.947716 2.33967 1.64373 1.64366C2.33973 0.947655 3.28373 0.556641 4.26803 0.556641H10.2062C11.1905 0.556641 12.1345 0.947655 12.8305 1.64366C13.5265 2.33967 13.9175 3.28366 13.9175 4.26797V10.2061C13.9175 11.1904 13.5265 12.1344 12.8305 12.8304C12.1345 13.5264 11.1905 13.9174 10.2062 13.9174H4.26803C3.28373 13.9174 2.33973 13.5264 1.64373 12.8304C0.947716 12.1344 0.556702 11.1904 0.556702 10.2061Z" stroke="white" stroke-width="1.1134"/>
<path d="M11.3196 3.16379L11.3287 3.15381" stroke="white" stroke-width="1.1134" stroke-linecap="round" stroke-linejoin="round"/>
</svg>
